<?xml version="1.0" encoding="UTF-8"?>
<svg width="142px" height="40px" viewBox="0 0 142 40" version="1.1" xmlns="http://www.w3.org/2000/svg" xmlns:xlink="http://www.w3.org/1999/xlink">
    <!-- Generator: Sketch 53.2 (72643) - https://sketchapp.com -->
    <title>logo</title>
    <desc>Created with Sketch.</desc>
    <g id="Page-1" stroke="none" stroke-width="1" fill="none" fill-rule="evenodd">
        <path d="M73.300682,30.992117 L93.5,31 C95.4331445,31 97,29.4335774 97,27.502 C97,25.5704226 95.4331445,24.004 93.5,24.004 L83.5,24.004 C77.1424941,24.004 71.99,18.855772 71.99,12.502 C71.99,6.14964975 77.1410722,1 83.494,1 L103,1 L103,9 L83.494,9 C81.5588556,9 79.99,10.5684224 79.99,12.502 C79.99,14.43601 81.5592894,16.004 83.5,16.004 L93.5,16.004 C99.8509277,16.004 105,21.1516496 105,27.502 C105,33.8523504 99.8509277,39 93.498439,38.9999997 L75.8925592,38.9931291 L75.8947849,39 L67.4854968,39 L57.8604431,9.28787794 C57.5702317,8.52036901 56.8330266,8 56,8 C55.1669734,8 54.4297683,8.52036901 54.1395569,9.28787794 L44.5145032,39 L36.1052151,39 L46.5506839,6.75529196 L46.5864704,6.64984945 C47.9901941,2.6956023 51.7388555,0 56,0 C60.2611445,0 64.0098059,2.6956023 65.4135296,6.64984945 L65.4493161,6.75529196 L73.300682,30.992117 L73.300682,30.992117 Z M10,8 C8.895139,8 8,8.895139 8,10 L8,39 L0,39 L0,10 C0,4.476861 4.476861,0 10,0 C14.2606422,0 18.0078568,2.69490477 19.413018,6.64840927 L19.4592899,6.77859804 L26.1613296,30.7669476 C26.4663757,31.5049119 27.1876257,32 28,32 C29.104861,32 30,31.104861 30,30 L30,1 L38,1 L38,30 C38,35.523139 33.523139,40 28,40 C23.7393578,40 19.9921432,37.3050952 18.586982,33.3515907 L18.5407101,33.221402 L11.8386704,9.23305236 C11.5336243,8.49508811 10.8123743,8 10,8 Z M102.105215,39 L112.550684,6.75529196 L112.58647,6.64984945 C113.990194,2.6956023 117.738856,0 122,0 C126.261144,0 130.009806,2.6956023 131.41353,6.64984945 L131.449316,6.75529196 L141.894785,39 L133.485497,39 L123.860443,9.28787794 C123.570232,8.52036901 122.833027,8 122,8 C121.166973,8 120.429768,8.52036901 120.139557,9.28787794 L110.514503,39 L102.105215,39 Z" id="logo" fill="#eef5d9" fill-rule="nonzero"></path>
    </g>
</svg>